<?xml version="1.0" encoding="UTF-8"?>
<!DOCTYPE svg PUBLIC "-//W3C//DTD SVG 1.1//EN" "http://www.w3.org/Graphics/SVG/1.1/DTD/svg11.dtd">
<!-- Creator: CorelDRAW X8 -->
<svg xmlns="http://www.w3.org/2000/svg" xml:space="preserve" width="370px" height="370px" version="1.1" style="shape-rendering:geometricPrecision; text-rendering:geometricPrecision; image-rendering:optimizeQuality; fill-rule:evenodd; clip-rule:evenodd"
viewBox="0 0 370 370"
 xmlns:xlink="http://www.w3.org/1999/xlink">
 <defs>
  <style type="text/css">
   <![CDATA[
    .str0 {stroke:white;stroke-width:8.26655;stroke-linecap:round;stroke-linejoin:round}
    .fil5 {fill:none;fill-rule:nonzero}
    .fil6 {fill:#2B2A29}
    .fil0 {fill:white}
    .fil4 {fill:#2B2A29;fill-rule:nonzero}
    .fil1 {fill:#E41D2D;fill-rule:nonzero}
    .fil2 {fill:#AF2227;fill-rule:nonzero}
    .fil3 {fill:#7A221F;fill-rule:nonzero}
   ]]>
  </style>
 </defs>
 <g id="Слой_x0020_1">
  <metadata id="CorelCorpID_0Corel-Layer"/>
  <polygon class="fil0" points="205,-46 396,279 5,279 "/>
  <g id="_799710400">
   <polygon class="fil1" points="114,267 222,233 188,227 111,244 "/>
   <polygon class="fil2" points="222,233 222,245 114,278 114,264 "/>
   <polygon class="fil2" points="54,277 113,277 206,115 204,18 "/>
   <polygon class="fil1" points="203,121 204,18 323,225 323,225 263,225 "/>
   <polygon class="fil2" points="204,18 204,39 278,148 "/>
   <polygon class="fil3" points="204,18 204,39 129,148 "/>
   <polygon class="fil1" points="179,205 203,205 203,164 "/>
   <polygon class="fil2" points="203,164 203,205 227,205 "/>
   <path class="fil4" d="M27 344l0 -8c0,-3 0,-6 -6,-6 -3,0 -6,1 -6,4l2 0c0,-2 2,-2 4,-2 3,0 3,1 3,4l-4 0c-3,0 -6,0 -6,4 0,3 2,4 6,4 2,0 4,0 4,-1l0 1 3 0zm-3 -6c0,3 0,4 -4,4 -2,0 -3,0 -3,-2 0,-2 1,-2 3,-2l4 0zm19 2c0,-1 0,-2 -1,-3 1,0 1,-2 1,-3 0,-2 0,-3 -2,-3 -1,-1 -2,-1 -4,-1l-5 0 0 14 6 0c1,0 3,0 4,-1 1,-1 1,-2 1,-3zm-2 -6c0,1 0,1 -1,2 0,0 -1,0 -2,0l-4 0 0 -4 4 0c2,0 3,1 3,2zm0 6c0,1 0,2 -1,2 0,0 -2,0 -2,0l-4 0 0 -4 3 0c3,0 3,0 3,1 1,0 1,0 1,1zm19 4l0 -8c0,-3 0,-6 -6,-6 -3,0 -6,1 -6,4l2 0c0,-2 2,-2 4,-2 3,0 3,1 3,4l-4 0c-3,0 -5,0 -5,4 0,3 1,4 5,4 2,0 4,0 4,-1l0 1 3 0zm-3 -6c0,3 0,4 -4,4 -2,0 -3,0 -3,-2 0,-2 1,-2 3,-2l4 0zm20 -1c0,-4 -1,-7 -6,-7 -1,0 -3,1 -4,2l0 -2 -2 0 0 20 2 0 0 -7c1,1 2,1 4,1 6,0 6,-3 6,-7l0 0zm-2 0c0,4 -1,5 -4,5 -3,0 -4,-1 -4,-5 0,-4 1,-5 4,-5 3,0 4,2 4,5l0 0zm18 7l0 -14 -2 0 -7 11 0 -11 -2 0 0 14 2 0 7 -10 0 10 2 0zm17 0l0 -14 -2 0 -7 11 0 -11 -2 0 0 14 2 0 7 -10 0 10 2 0zm-2 -19l-1 0c0,2 -1,2 -3,2 -1,0 -2,0 -2,-2l-2 0c0,3 1,4 4,4 3,0 4,-1 4,-4zm19 19l0 -14 -2 0 0 6 -7 0 0 -6 -3 0 0 14 3 0 0 -6 7 0 0 6 2 0zm17 -4c0,-1 -1,-2 -1,-3 -1,-1 -2,-1 -4,-1l-4 0 0 -6 -3 0 0 14 7 0c1,0 1,0 1,0 1,0 2,0 3,-1 1,0 1,-2 1,-3zm-3 0c0,2 -1,2 -3,2l-3 0 0 -4 3 0c2,0 3,0 3,2zm8 4l0 -14 -3 0 0 14 3 0zm16 0l0 -14 -2 0 -7 11 0 -11 -2 0 0 14 2 0 7 -10 0 10 2 0zm-1 -19l-2 0c0,2 -1,2 -2,2 -2,0 -3,0 -3,-2l-2 0c0,3 1,4 5,4 3,0 4,-1 4,-4zm25 19l-7 -7 7 -7 -3 0 -6 6 0 -6 -3 0 0 14 3 0 0 -6 6 6 3 0zm16 -7c0,-3 0,-4 -2,-5 -1,-1 -2,-2 -4,-2 -3,0 -4,1 -5,2 -2,1 -2,2 -2,5 0,3 0,5 2,6 1,1 2,1 5,1 2,0 3,0 4,-1 2,-1 2,-3 2,-6zm-3 0c0,4 0,5 -3,5 -4,0 -4,-1 -4,-5 0,-3 0,-5 4,-5 3,0 3,2 3,5zm23 7l0 -14 -3 0 -5 11 -4 -11 -3 0 0 14 2 0 0 -10 4 10 2 0 4 -10 0 10 3 0zm16 0l0 -14 -2 0 -7 11 0 -11 -2 0 0 14 2 0 7 -10 0 10 2 0zm17 -4l-2 0c0,2 -2,2 -4,2 -3,0 -3,-1 -3,-5 0,-3 0,-5 3,-5 2,0 4,1 4,2l2 0c0,-3 -3,-4 -6,-4 -5,0 -6,3 -6,7 0,4 1,7 6,7 3,0 6,0 6,-4zm16 0l-2 0c0,2 -2,2 -3,2 -4,0 -4,-1 -4,-5 0,-3 0,-5 4,-5 1,0 3,1 3,2l2 0c0,-3 -3,-4 -5,-4 -6,0 -7,3 -7,7 0,4 1,7 7,7 2,0 5,0 5,-4zm16 4l0 -8c0,-3 0,-6 -5,-6 -4,0 -6,1 -6,4l2 0c0,-2 2,-2 3,-2 4,0 4,1 4,4l-4 0c-3,0 -6,0 -6,4 0,3 2,4 6,4 2,0 3,0 4,-1l0 1 2 0zm-2 -6c0,3 0,4 -4,4 -3,0 -3,0 -3,-2 0,-2 1,-2 3,-2l4 0zm20 -1c0,-4 -1,-7 -6,-7 -2,0 -3,1 -4,2l0 -2 -3 0 0 20 3 0 0 -7c1,1 2,1 4,1 5,0 6,-3 6,-7l0 0zm-3 0c0,4 0,5 -3,5 -3,0 -4,-1 -4,-5 0,-4 1,-5 4,-5 3,0 3,2 3,5l0 0zm19 7l0 -14 -3 0 -6 11 0 -11 -3 0 0 14 3 0 7 -10 0 10 2 0zm17 0l0 -8c0,-3 0,-6 -6,-6 -3,0 -6,1 -6,4l2 0c0,-2 2,-2 4,-2 3,0 3,1 3,4l-4 0c-3,0 -5,0 -5,4 0,3 2,4 5,4 2,0 4,0 5,-1l0 1 2 0zm-3 -6c0,3 0,4 -4,4 -2,0 -3,0 -3,-2 0,-2 1,-2 3,-2l4 0zm18 -6l0 -2 -12 0 0 2 5 0 0 12 2 0 0 -12 5 0z"/>
   <path class="fil4" d="M20 283l-12 36c0,0 2,0 4,0 2,0 4,0 4,0l2 -8 13 0 2 8c0,0 2,0 4,0 3,0 4,0 4,0l-11 -36c0,0 -2,0 -5,0 -3,0 -5,0 -5,0zm5 8c0,0 0,2 1,5l3 10 -9 0 3 -10c1,-3 1,-5 1,-5l1 0zm21 -8l0 36 15 0c7,0 11,-4 11,-10 0,-4 -2,-7 -5,-9 3,-1 4,-4 4,-7 0,-6 -4,-10 -10,-10l-15 0zm8 15l0 -9 5 0c3,0 4,1 4,4 0,3 -1,5 -4,5l-5 0zm0 15l0 -9 5 0c3,0 5,1 5,5 0,3 -2,4 -5,4l-5 0zm32 -30l-12 36c0,0 2,0 4,0 2,0 4,0 4,0l2 -8 13 0 2 8c0,0 2,0 4,0 3,0 4,0 4,0l-11 -36c0,0 -2,0 -5,0 -3,0 -5,0 -5,0zm5 8c0,0 0,2 1,5l3 10 -9 0 3 -10c1,-3 1,-5 1,-5l1 0zm29 15l6 0c7,0 12,-4 12,-11 0,-8 -5,-12 -12,-12l-14 0 0 36c0,0 1,0 4,0 2,0 4,0 4,0l0 -13zm0 -6l0 -11 5 0c3,0 4,2 4,6 0,3 -1,5 -4,5l-5 0zm33 -3l-2 0 0 -14c0,0 -1,0 -4,0 -3,0 -4,0 -4,0l0 36c0,0 1,0 4,0 3,0 4,0 4,0l0 -16 2 0 9 16c0,0 2,0 5,0 2,0 4,0 4,0l-11 -19 10 -17c-1,0 -3,0 -5,0 -1,0 -2,0 -4,0l-8 14zm19 4c0,13 6,19 15,19 10,0 16,-6 16,-19 0,-13 -6,-19 -16,-19 -9,0 -15,6 -15,19zm22 0c0,10 -2,12 -7,12 -4,0 -6,-2 -6,-12 0,-10 2,-12 6,-12 5,0 7,2 7,12zm39 -18c-2,5 -4,9 -5,14 -1,2 -2,4 -2,5l0 0c-1,-2 -2,-6 -4,-9l-4 -10c0,0 -2,0 -4,0 -3,0 -5,0 -5,0l0 36c0,0 1,0 3,0 2,0 4,0 4,0l0 -12c0,-5 -1,-12 -1,-15l0 0c1,2 3,8 5,12 1,3 2,5 3,8 0,0 1,0 3,0 1,0 2,0 2,0l4 -8c1,-4 3,-10 4,-12l0 0c0,3 0,10 0,16l0 11c0,0 1,0 4,0 2,0 3,0 3,0l0 -36c0,0 -3,0 -5,0 -2,0 -4,0 -5,0z"/>
   <g>
    <path class="fil5 str0" d="M305 305l0 14 -49 0 1 -12c14,-21 22,-35 25,-40 3,-5 4,-10 4,-12 0,-3 0,-4 -1,-5 -1,-2 -2,-2 -4,-2 -2,0 -3,1 -4,2 0,1 -1,3 -1,7l0 8 -20 0 0 -3c0,-5 1,-8 1,-11 1,-3 2,-5 4,-8 2,-3 5,-4 8,-6 3,-1 7,-2 11,-2 9,0 15,2 20,6 4,4 7,9 7,16 0,4 -2,9 -4,15 -3,5 -10,16 -22,33l24 0zm55 0l0 14 -48 0 0 -12c15,-21 23,-35 26,-40 2,-5 4,-10 4,-12 0,-3 -1,-4 -1,-5 -1,-2 -2,-2 -4,-2 -2,0 -3,1 -4,2 -1,1 -1,3 -1,7l0 8 -20 0 0 -3c0,-5 0,-8 1,-11 0,-3 2,-5 4,-8 2,-3 4,-4 7,-6 4,-1 7,-2 12,-2 9,0 15,2 20,6 4,4 6,9 6,16 0,4 -1,9 -3,15 -3,5 -10,16 -23,33l24 0z"/>
    <path id="1" class="fil1" d="M305 305l0 14 -49 0 1 -12c14,-21 22,-35 25,-40 3,-5 4,-10 4,-12 0,-3 0,-4 -1,-5 -1,-2 -2,-2 -4,-2 -2,0 -3,1 -4,2 0,1 -1,3 -1,7l0 8 -20 0 0 -3c0,-5 1,-8 1,-11 1,-3 2,-5 4,-8 2,-3 5,-4 8,-6 3,-1 7,-2 11,-2 9,0 15,2 20,6 4,4 7,9 7,16 0,4 -2,9 -4,15 -3,5 -10,16 -22,33l24 0zm55 0l0 14 -48 0 0 -12c15,-21 23,-35 26,-40 2,-5 4,-10 4,-12 0,-3 -1,-4 -1,-5 -1,-2 -2,-2 -4,-2 -2,0 -3,1 -4,2 -1,1 -1,3 -1,7l0 8 -20 0 0 -3c0,-5 0,-8 1,-11 0,-3 2,-5 4,-8 2,-3 4,-4 7,-6 4,-1 7,-2 12,-2 9,0 15,2 20,6 4,4 6,9 6,16 0,4 -1,9 -3,15 -3,5 -10,16 -23,33l24 0z"/>
   </g>
   <path class="fil6" d="M248 313c1,0 3,2 3,3 0,2 -2,3 -3,3 -2,0 -3,-1 -3,-3 0,-1 1,-3 3,-3z"/>
  </g>
 </g>
</svg>
